<?xml version="1.0" encoding="UTF-8" standalone="no"?>
<svg
   xmlns:dc="http://purl.org/dc/elements/1.1/"
   xmlns:cc="http://creativecommons.org/ns#"
   xmlns:rdf="http://www.w3.org/1999/02/22-rdf-syntax-ns#"
   xmlns:svg="http://www.w3.org/2000/svg"
   xmlns="http://www.w3.org/2000/svg"
   xmlns:sodipodi="http://sodipodi.sourceforge.net/DTD/sodipodi-0.dtd"
   xmlns:inkscape="http://www.inkscape.org/namespaces/inkscape"
   width="210mm"
   height="297mm"
   viewBox="0 0 210 297"
   version="1.1"
   id="svg8"
   inkscape:version="0.91 r13725"
   sodipodi:docname="LogoSimple.svg">
  <defs
     id="defs2">
    <rect
       x="89.580357"
       y="79.752976"
       width="77.863095"
       height="12.85119"
       id="rect2246" />
    <clipPath
       clipPathUnits="userSpaceOnUse"
       id="clipPath849">
      <path
         d="M 0,1008 H 612 V 0 H 0 Z"
         id="path847" />
    </clipPath>
    <clipPath
       clipPathUnits="userSpaceOnUse"
       id="clipPath945">
      <path
         d="M 0,1008 H 612 V 0 H 0 Z"
         id="path943" />
    </clipPath>
    <clipPath
       clipPathUnits="userSpaceOnUse"
       id="clipPath1077">
      <path
         d="M 0,1008 H 612 V 0 H 0 Z"
         id="path1075" />
    </clipPath>
    <clipPath
       clipPathUnits="userSpaceOnUse"
       id="clipPath1261">
      <path
         d="M 0,1008 H 612 V 0 H 0 Z"
         id="path1259" />
    </clipPath>
    <clipPath
       clipPathUnits="userSpaceOnUse"
       id="clipPath1285">
      <path
         d="M 0,1008 H 612 V 0 H 0 Z"
         id="path1283" />
    </clipPath>
    <clipPath
       clipPathUnits="userSpaceOnUse"
       id="clipPath1307">
      <path
         d="m 480.817,740.847 h 18.568 v -45.059 h -18.568 z"
         id="path1305" />
    </clipPath>
    <clipPath
       clipPathUnits="userSpaceOnUse"
       id="clipPath1321">
      <path
         d="m 511.649,740.847 h 18.568 v -45.059 h -18.568 z"
         id="path1319" />
    </clipPath>
    <clipPath
       clipPathUnits="userSpaceOnUse"
       id="clipPath1337">
      <path
         d="m 480.817,667.307 h 18.568 v -45.058 h -18.568 z"
         id="path1335" />
    </clipPath>
    <clipPath
       clipPathUnits="userSpaceOnUse"
       id="clipPath1351">
      <path
         d="m 511.649,667.307 h 18.568 v -45.058 h -18.568 z"
         id="path1349" />
    </clipPath>
    <clipPath
       clipPathUnits="userSpaceOnUse"
       id="clipPath1375">
      <path
         d="M 0,1008 H 612 V 0 H 0 Z"
         id="path1373" />
    </clipPath>
  </defs>
  <sodipodi:namedview
     id="base"
     pagecolor="#ffffff"
     bordercolor="#666666"
     borderopacity="1.0"
     inkscape:pageopacity="0.0"
     inkscape:pageshadow="2"
     inkscape:zoom="0.7"
     inkscape:cx="198.33495"
     inkscape:cy="553.68815"
     inkscape:document-units="mm"
     inkscape:current-layer="layer1"
     inkscape:document-rotation="0"
     showgrid="false"
     inkscape:window-width="1609"
     inkscape:window-height="937"
     inkscape:window-x="90"
     inkscape:window-y="-8"
     inkscape:window-maximized="1" />
  <metadata
     id="metadata5">
    <rdf:RDF>
      <cc:Work
         rdf:about="">
        <dc:format>image/svg+xml</dc:format>
        <dc:type
           rdf:resource="http://purl.org/dc/dcmitype/StillImage" />
        <dc:title></dc:title>
      </cc:Work>
    </rdf:RDF>
  </metadata>
  <g
     inkscape:label="Capa 1"
     inkscape:groupmode="layer"
     id="layer1">
    <g
       id="g851"
       transform="matrix(0.35277777,0,0,-0.35277777,52.813427,14.147937)"
       style="fill:#000000">
      <path
         d="M 0,0 -10.868,-2.978 -22.91,0.385 c -2.973,13.829 -13.611,22.966 -24.543,26.053 -11.476,3.242 -22.824,2.325 -33.409,-3.471 -8.505,-4.658 -14.461,-11.456 -15.671,-21.493 -0.928,-7.706 1.749,-14.313 6.972,-19.846 7.907,-8.375 17.955,-11.813 29.242,-11.87 12.343,-0.062 23.167,3.684 31.393,13.366 3.515,4.135 5.348,9.007 5.905,14.734 l 12.264,-3.18 10.727,2.598 c -0.603,-4.803 -2.582,-7.901 -5.082,-10.694 -5.971,-6.673 -13.747,-10.462 -22.031,-13.241 -13.389,-4.491 -27.198,-5.779 -41.258,-4.942 -9.071,0.54 -17.943,2.077 -26.558,4.958 -8.681,2.903 -16.824,6.829 -22.719,14.115 -6.736,8.328 -6.216,17.149 1.216,24.921 6.862,7.178 15.59,11.17 24.944,13.705 22.977,6.228 45.835,5.823 68.276,-2.479 C -15.594,20.789 -8.56,16.694 -3.577,9.906 -1.51,7.091 0.146,3.476 0,0"
         style="fill:#000000;fill-opacity:1;fill-rule:nonzero;stroke:none"
         id="path853"
         inkscape:connector-curvature="0" />
    </g>
  </g>
</svg>
